<?xml version="1.0" encoding="UTF-8" standalone="no"?>
<svg
   xmlns:dc="http://purl.org/dc/elements/1.1/"
   xmlns:cc="http://creativecommons.org/ns#"
   xmlns:rdf="http://www.w3.org/1999/02/22-rdf-syntax-ns#"
   xmlns:svg="http://www.w3.org/2000/svg"
   xmlns="http://www.w3.org/2000/svg"
   xmlns:sodipodi="http://sodipodi.sourceforge.net/DTD/sodipodi-0.dtd"
   xmlns:inkscape="http://www.inkscape.org/namespaces/inkscape"
   version="1.1"
   x="0px"
   y="0px"
   viewBox="0 0 1000 1000"
   enable-background="new 0 0 1000 1000"
   xml:space="preserve"
   id="svg46"
   sodipodi:docname="del-user.svg"
   inkscape:version="1.0.1 (3bc2e813f5, 2020-09-07)"><defs
   id="defs50" /><sodipodi:namedview
   pagecolor="#ffffff"
   bordercolor="#666666"
   borderopacity="1"
   objecttolerance="10"
   gridtolerance="10"
   guidetolerance="10"
   inkscape:pageopacity="0"
   inkscape:pageshadow="2"
   inkscape:window-width="1856"
   inkscape:window-height="1010"
   id="namedview48"
   showgrid="false"
   inkscape:zoom="0.8921085"
   inkscape:cx="500"
   inkscape:cy="500"
   inkscape:window-x="64"
   inkscape:window-y="32"
   inkscape:window-maximized="1"
   inkscape:current-layer="svg46"
   inkscape:document-rotation="0" />
<metadata
   id="metadata2"> Svg Vector Icons : http://www.onlinewebfonts.com/icon <rdf:RDF><cc:Work
     rdf:about=""><dc:format>image/svg+xml</dc:format><dc:type
       rdf:resource="http://purl.org/dc/dcmitype/StillImage" /></cc:Work></rdf:RDF></metadata>
<g
   id="g44"
   style="fill:#ff0000"><g
     id="g12"
     style="fill:#ff0000"><g
       id="g10"
       style="fill:#ff0000"><path
         d="M431.5,10c129.3,0,234.1,104.8,234.1,234.1c0,129.3-104.8,234.1-234.1,234.1c-129.3,0-234.1-104.8-234.1-234.1C197.4,114.8,302.2,10,431.5,10z"
         id="path4"
         style="fill:#ff0000" /><path
         d="M128.1,899.5l164.7,43.4c71.4,18.8,186.5,16.6,257.1-5l66.6-20.4C654,961.8,709.9,990,772.3,990c112.4,0,203.9-91.5,203.9-203.9c0-112.4-91.5-203.9-203.9-203.9c-19,0-37.4,2.8-54.9,7.7c-42.3-51.1-96.5-89.8-163.2-111.5c-38.8,22.8-83.8,36.1-132,36.1c-48.4,0-93.7-13.4-132.6-36.4C165,517.1,76.8,611.8,30.6,735.7C4.7,804.9,56.7,880.6,128.1,899.5z M771.8,609c97.1,0,175.9,78.7,175.9,175.9c0,97.1-78.7,175.9-175.9,175.9c-97.1,0-175.9-78.7-175.9-175.9C595.9,687.8,674.6,609,771.8,609z"
         id="path6"
         style="fill:#ff0000" /><path
         d="M673.3,874.9c6.2,6.8,14.7,10.2,23.2,10.2c7.6,0,15.2-2.7,21.2-8.2l54.1-49.4l54,49.4c6,5.5,13.6,8.2,21.2,8.2c8.5,0,17-3.4,23.2-10.2c11.7-12.8,10.8-32.7-2-44.4l-49.9-45.6l49.9-45.6c12.8-11.7,13.7-31.6,2-44.4c-11.7-12.8-31.6-13.7-44.4-2l-54,49.5l-54.1-49.5c-12.8-11.7-32.7-10.8-44.4,2c-11.7,12.8-10.8,32.7,2,44.4l49.9,45.6l-49.9,45.6C662.5,842.2,661.6,862.1,673.3,874.9z"
         id="path8"
         style="fill:#ff0000" /></g></g><g
     id="g14"
     style="fill:#ff0000" /><g
     id="g16"
     style="fill:#ff0000" /><g
     id="g18"
     style="fill:#ff0000" /><g
     id="g20"
     style="fill:#ff0000" /><g
     id="g22"
     style="fill:#ff0000" /><g
     id="g24"
     style="fill:#ff0000" /><g
     id="g26"
     style="fill:#ff0000" /><g
     id="g28"
     style="fill:#ff0000" /><g
     id="g30"
     style="fill:#ff0000" /><g
     id="g32"
     style="fill:#ff0000" /><g
     id="g34"
     style="fill:#ff0000" /><g
     id="g36"
     style="fill:#ff0000" /><g
     id="g38"
     style="fill:#ff0000" /><g
     id="g40"
     style="fill:#ff0000" /><g
     id="g42"
     style="fill:#ff0000" /></g>
</svg>
