<?xml version="1.0" encoding="UTF-8" standalone="no"?>
<svg
   xmlns:dc="http://purl.org/dc/elements/1.1/"
   xmlns:cc="http://creativecommons.org/ns#"
   xmlns:rdf="http://www.w3.org/1999/02/22-rdf-syntax-ns#"
   xmlns:svg="http://www.w3.org/2000/svg"
   xmlns="http://www.w3.org/2000/svg"
   xmlns:sodipodi="http://sodipodi.sourceforge.net/DTD/sodipodi-0.dtd"
   xmlns:inkscape="http://www.inkscape.org/namespaces/inkscape"
   version="1.1"
   id="Layer_1"
   x="0px"
   y="0px"
   viewBox="0 0 369.997 369.997"
   style="enable-background:new 0 0 369.997 369.997;"
   xml:space="preserve"
   sodipodi:docname="file.svg"
   inkscape:version="1.0.1 (3bc2e813f5, 2020-09-07)"><metadata
   id="metadata40"><rdf:RDF><cc:Work
       rdf:about=""><dc:format>image/svg+xml</dc:format><dc:type
         rdf:resource="http://purl.org/dc/dcmitype/StillImage" /></cc:Work></rdf:RDF></metadata><defs
   id="defs38" /><sodipodi:namedview
   pagecolor="#ffffff"
   bordercolor="#666666"
   borderopacity="1"
   objecttolerance="10"
   gridtolerance="10"
   guidetolerance="10"
   inkscape:pageopacity="0"
   inkscape:pageshadow="2"
   inkscape:window-width="1856"
   inkscape:window-height="1010"
   id="namedview36"
   showgrid="false"
   inkscape:zoom="2.1585576"
   inkscape:cx="184.9985"
   inkscape:cy="184.9985"
   inkscape:window-x="64"
   inkscape:window-y="32"
   inkscape:window-maximized="1"
   inkscape:current-layer="Layer_1" />
<g
   id="XMLID_912_"
   style="fill:#ff0000">
	<path
   id="XMLID_913_"
   d="M274.999,161.073v-45.689c0.003-0.13,0.02-0.256,0.02-0.387c0-3.109-0.959-5.987-2.578-8.381   c-0.002-0.003-0.003-0.005-0.005-0.007c-0.257-0.379-0.53-0.743-0.819-1.096c-0.023-0.029-0.047-0.059-0.07-0.087   c-0.274-0.33-0.563-0.645-0.863-0.95c-0.047-0.047-0.093-0.095-0.14-0.142c-0.132-0.13-0.253-0.27-0.39-0.395L170.605,4.393   c-0.311-0.311-0.636-0.602-0.969-0.881c-0.103-0.086-0.209-0.167-0.314-0.25c-0.241-0.191-0.486-0.375-0.736-0.55   c-0.125-0.087-0.251-0.174-0.378-0.258c-0.261-0.171-0.528-0.331-0.798-0.485c-0.113-0.064-0.224-0.134-0.339-0.196   c-0.362-0.193-0.731-0.371-1.105-0.533c-0.156-0.068-0.316-0.126-0.475-0.189c-0.247-0.097-0.495-0.189-0.746-0.273   c-0.178-0.06-0.355-0.116-0.536-0.169c-0.284-0.083-0.57-0.155-0.858-0.221c-0.136-0.031-0.27-0.069-0.408-0.097   c-0.417-0.083-0.839-0.145-1.262-0.192c-0.134-0.015-0.27-0.025-0.406-0.036c-0.347-0.03-0.694-0.047-1.043-0.053   C160.153,0.011,160.077,0,159.998,0h-140c-8.284,0-15,6.716-15,15v300c0,8.284,6.716,15,15,15h157.599   c19.246,24.346,49.029,39.997,82.401,39.997c57.897,0,105-47.103,105-105C364.999,212.193,325.815,168.374,274.999,161.073z    M174.998,51.212l48.787,48.785h-48.787V51.212z M34.998,300V30h110v84.997c0,8.284,6.716,15,15,15h85.001v31.076   c-10.474,1.505-20.452,4.56-29.696,8.927H79.998c-8.284,0-15,6.716-15,15c0,8.284,6.716,15,15,15h97.594   c-7.067,8.941-12.708,19.057-16.588,30H79.998c-8.284,0-15,6.716-15,15c0,8.284,6.716,15,15,15h75.123   c-0.078,1.656-0.122,3.322-0.122,4.997c0,12.269,2.122,24.049,6.007,35.003H34.998z M259.999,339.997   c-41.354,0-74.999-33.645-74.999-75c0-41.355,33.645-75,74.999-75c41.355,0,75,33.645,75,75   C334.999,306.352,301.354,339.997,259.999,339.997z"
   style="fill:#ff0000" />
	<path
   id="XMLID_918_"
   d="M291.819,233.178c-5.856-5.858-15.355-5.858-21.213,0l-10.607,10.607l-10.606-10.607   c-5.857-5.858-15.355-5.858-21.213,0c-5.858,5.858-5.858,15.355,0,21.213l10.606,10.607l-10.606,10.607   c-5.858,5.857-5.858,15.355,0,21.213c2.929,2.929,6.768,4.393,10.606,4.393c3.838,0,7.678-1.465,10.607-4.393l10.606-10.607   l10.607,10.607c2.929,2.929,6.768,4.393,10.607,4.393c3.839,0,7.678-1.464,10.606-4.393c5.858-5.858,5.858-15.355,0-21.213   l-10.606-10.607l10.606-10.607C297.677,248.533,297.677,239.036,291.819,233.178z"
   style="fill:#ff0000" />
</g>
<g
   id="g5">
</g>
<g
   id="g7">
</g>
<g
   id="g9">
</g>
<g
   id="g11">
</g>
<g
   id="g13">
</g>
<g
   id="g15">
</g>
<g
   id="g17">
</g>
<g
   id="g19">
</g>
<g
   id="g21">
</g>
<g
   id="g23">
</g>
<g
   id="g25">
</g>
<g
   id="g27">
</g>
<g
   id="g29">
</g>
<g
   id="g31">
</g>
<g
   id="g33">
</g>
</svg>
