<!DOCTYPE svg PUBLIC "-//W3C//DTD SVG 20010904//EN" "http://www.w3.org/TR/2001/REC-SVG-20010904/DTD/svg10.dtd">
<svg version="1.0" xmlns="http://www.w3.org/2000/svg" width="768px" height="884px" viewBox="0 0 7680 8840" preserveAspectRatio="xMidYMid meet">
<g id="layer101" fill="#2cad6d" stroke="none">
<path d="M3060 6690 c-14 -4 -51 -8 -83 -9 l-58 -1 6 -82 c15 -189 80 -410 180 -613 258 -526 815 -999 1486 -1264 123 -49 303 -153 439 -255 379 -283 614 -701 670 -1192 16 -137 10 -492 -8 -503 -7 -4 -86 -16 -175 -26 -152 -17 -172 -17 -332 -2 -361 34 -607 149 -724 340 -43 70 -110 86 -163 38 -38 -34 -38 -34 -24 -321 10 -199 0 -300 -50 -490 -60 -230 -137 -398 -276 -606 -79 -119 -270 -324 -300 -324 -32 0 -108 62 -219 178 -228 238 -332 425 -425 761 -56 204 -66 399 -32 654 11 82 10 89 -8 115 -27 35 -77 61 -110 54 -15 -3 -43 -23 -63 -46 -197 -223 -402 -332 -697 -371 -179 -23 -458 -15 -532 16 l-24 9 5 248 c3 235 5 254 36 392 64 284 142 471 289 695 98 150 198 270 338 406 134 130 230 206 393 313 216 142 416 245 616 316 133 47 177 101 143 175 -17 38 -72 69 -110 61 -91 -18 -438 -181 -618 -291 -611 -371 -1007 -835 -1190 -1395 -91 -275 -121 -454 -121 -720 0 -134 16 -367 26 -378 11 -12 195 -53 301 -67 352 -48 734 26 996 191 21 13 49 24 62 24 28 0 25 12 45 -190 33 -327 163 -655 368 -927 111 -148 283 -313 462 -444 l70 -51 73 55 c154 116 337 329 474 549 167 270 275 592 290 868 7 133 9 140 41 140 14 0 47 -13 73 -29 203 -125 548 -196 832 -171 169 15 429 57 444 72 7 7 23 76 35 153 19 123 21 165 16 350 -4 146 -12 242 -26 313 -90 472 -314 863 -659 1153 -186 155 -400 285 -612 369 -418 166 -829 453 -1090 760 -214 251 -369 605 -395 900 -11 118 -15 122 -85 100z"/>
<path d="M4072 6550 c-8 -102 -19 -162 -44 -245 l-33 -110 -60 -6 c-185 -18 -318 -178 -284 -341 30 -142 129 -237 264 -253 102 -13 222 61 279 173 41 80 43 120 11 207 -32 87 -31 96 19 252 52 167 85 420 56 438 -6 4 -53 10 -104 13 l-93 7 -11 -135z m0 -455 c65 -46 97 -113 98 -203 0 -128 -67 -218 -184 -242 -100 -21 -192 16 -251 99 -26 38 -30 52 -33 125 -4 90 7 130 52 182 46 56 99 75 193 72 72 -3 86 -7 125 -33z"/>
<path d="M3580 4497 c-14 -8 -74 -44 -135 -82 -109 -67 -295 -175 -825 -480 -151 -86 -288 -170 -304 -186 -44 -42 -42 -91 7 -135 41 -38 61 -41 113 -19 40 16 783 445 885 511 89 57 144 84 169 84 20 0 20 -2 20 -770 0 -846 -2 -813 60 -845 39 -20 58 -19 98 5 64 39 62 12 62 845 l0 755 25 0 c27 0 86 -33 510 -285 432 -257 536 -315 565 -315 33 0 75 31 96 71 28 54 -2 98 -106 159 -36 21 -195 113 -355 205 -280 162 -384 223 -696 408 -81 48 -150 87 -155 87 -5 0 -20 -6 -34 -13z"/>
</g>
<g id="layer102" fill="#60b85b" stroke="none">
<path d="M3060 6690 c-14 -4 -51 -8 -83 -9 l-58 -1 6 -82 c9 -111 49 -292 91 -408 224 -618 804 -1161 1565 -1465 107 -43 286 -139 357 -192 17 -13 36 -21 42 -18 5 3 14 -4 20 -15 6 -11 18 -20 26 -20 9 0 12 -5 8 -12 -4 -7 6 0 22 15 24 23 27 29 14 37 -13 9 -7 14 13 11 4 0 7 3 7 9 0 5 -5 10 -11 10 -5 0 -7 5 -4 10 4 6 11 8 16 5 11 -7 41 20 32 29 -4 3 -16 0 -29 -8 -24 -17 -40 -10 -23 10 6 7 17 10 25 7 8 -3 14 -2 13 3 -4 22 2 35 12 28 8 -4 7 -9 -2 -15 -10 -6 -10 -9 -2 -9 23 0 24 20 3 42 -12 13 -24 23 -28 23 -4 0 -18 10 -31 22 -13 12 -28 20 -32 17 -4 -2 -11 2 -16 10 -19 33 -222 142 -385 207 -416 165 -828 452 -1088 759 -214 251 -369 605 -395 900 -11 118 -15 122 -85 100z m2003 -2042 c-10 -21 -10 -21 -9 9 1 19 5 28 10 23 6 -6 5 -18 -1 -32z m40 -4 c-4 -12 -8 -13 -14 -3 -9 15 -2 32 11 24 5 -3 6 -13 3 -21z m-38 -40 c-13 -20 -14 -28 -5 -34 9 -5 8 -9 -2 -13 -8 -3 -15 0 -15 6 0 7 -4 21 -9 31 -4 12 -4 17 2 13 6 -3 17 3 24 13 21 29 25 15 5 -16z m-34 -48 c-8 -10 -9 -27 -2 -54 1 -2 6 0 12 4 8 4 8 9 0 17 -16 16 -14 23 10 24 16 2 18 -1 9 -12 -8 -9 -8 -15 0 -20 18 -11 -7 -34 -30 -28 -11 3 -17 9 -15 14 3 4 -2 12 -11 17 -15 9 -16 14 -4 41 10 25 15 29 26 20 10 -8 11 -16 5 -23z"/>
<path d="M4072 6550 c-7 -85 -20 -165 -35 -217 l-24 -81 21 -7 c12 -4 24 -8 28 -9 4 0 16 -8 26 -17 10 -8 24 -13 32 -11 7 3 18 -2 24 -9 6 -8 23 -19 37 -26 l26 -11 26 92 c46 158 73 395 47 411 -6 4 -53 10 -104 13 l-93 7 -11 -135z"/>
<path d="M3170 5331 c-426 -159 -885 -461 -1197 -784 -256 -267 -423 -541 -533 -877 -91 -275 -121 -454 -121 -720 0 -134 16 -367 26 -378 11 -12 195 -53 301 -67 352 -48 734 26 996 191 21 13 49 24 62 24 28 0 25 12 45 -190 36 -359 189 -717 427 -999 95 -114 166 -182 192 -184 11 0 18 -5 16 -9 -3 -5 -11 -5 -17 -1 -7 4 -6 -1 2 -11 14 -16 15 -16 28 6 9 14 12 16 9 5 -4 -12 -2 -17 6 -14 7 2 12 10 11 16 -2 6 5 11 15 11 14 -1 12 -5 -9 -23 -23 -20 -24 -25 -10 -37 13 -13 14 -12 8 3 -4 11 -1 17 8 17 8 0 15 7 15 15 0 8 14 21 30 30 17 9 30 18 30 21 0 2 -9 0 -19 -6 -24 -12 -39 5 -16 18 14 7 21 23 24 55 1 4 8 7 17 7 14 0 14 2 0 15 -8 8 -20 15 -27 15 -7 0 -10 2 -7 5 8 8 -62 81 -74 77 -5 -1 -7 1 -5 5 3 5 -24 42 -60 83 -163 188 -258 374 -339 669 -56 204 -66 399 -32 654 11 82 10 89 -8 115 -27 35 -77 61 -110 54 -15 -3 -43 -23 -63 -46 -197 -223 -402 -332 -697 -371 -179 -23 -458 -15 -532 16 l-24 9 5 248 c3 235 5 254 36 392 64 284 142 471 289 695 98 150 198 270 338 406 134 130 230 206 393 313 216 142 416 245 616 316 134 47 181 107 141 178 -16 29 -65 62 -91 61 -11 0 -54 -13 -95 -28z m285 -3847 c-19 -19 -19 -24 1 -24 8 0 12 5 8 11 -4 8 0 8 15 0 25 -14 25 -15 4 -32 -11 -10 -14 -10 -9 -1 5 8 1 12 -12 12 -10 0 -21 3 -25 6 -8 9 14 54 25 48 4 -3 1 -12 -7 -20z m-27 -59 c0 -25 -12 -33 -23 -16 -3 5 -1 12 5 16 6 4 8 11 5 16 -4 5 -2 9 3 9 5 0 10 -11 10 -25z m37 -5 c4 -6 12 -7 18 -3 7 4 6 0 -2 -10 -7 -9 -20 -17 -28 -17 -10 0 -11 -4 -3 -19 9 -18 8 -19 -19 -11 -16 4 -32 6 -35 3 -3 -3 -4 4 -3 15 0 12 6 18 14 15 7 -3 10 -9 7 -14 -3 -5 -1 -9 5 -9 5 0 12 9 16 19 4 13 12 18 23 15 14 -5 13 -3 -2 10 -11 9 -15 16 -9 16 7 0 15 -5 18 -10z"/>
<path d="M3580 4497 c-14 -8 -74 -44 -135 -82 -109 -67 -295 -175 -825 -480 -151 -86 -288 -170 -304 -186 -44 -42 -42 -91 7 -135 42 -39 65 -41 122 -15 42 19 768 440 912 528 45 28 80 53 78 55 -3 3 13 5 36 6 51 2 64 9 48 28 -8 10 -9 18 -2 25 8 8 13 7 18 -2 5 -8 4 -10 -3 -5 -7 4 -12 2 -12 -4 0 -11 48 -6 59 6 3 4 -2 4 -12 1 -15 -6 -16 -2 -11 21 4 15 12 30 17 34 7 4 7 11 -1 20 -8 11 -8 21 4 44 18 35 38 58 29 32 -4 -10 -3 -18 2 -18 5 0 14 14 20 31 10 26 10 29 -3 18 -8 -6 -17 -9 -20 -6 -3 3 12 17 33 31 20 14 33 26 27 26 -5 0 -15 -5 -21 -11 -9 -9 -11 -7 -6 9 3 13 11 19 21 16 14 -5 15 -4 2 4 -29 19 -55 22 -80 9z"/>
<path d="M3595 4361 c3 -5 -2 -17 -11 -25 -8 -9 -12 -16 -7 -16 5 0 16 9 25 19 14 17 14 20 2 25 -8 3 -13 2 -9 -3z"/>
<path d="M3921 4301 c-11 -20 -5 -31 17 -31 12 0 12 3 2 15 -6 8 -9 19 -5 25 3 5 4 10 1 10 -3 0 -10 -8 -15 -19z"/>
<path d="M3945 4301 c-6 -11 33 -36 42 -27 7 7 -16 36 -28 36 -4 0 -10 -4 -14 -9z"/>
<path d="M3990 4265 c-9 -11 -15 -12 -20 -5 -5 8 -15 8 -34 0 -17 -6 -25 -6 -21 0 3 6 2 10 -2 10 -16 0 -38 -46 -38 -80 0 -20 -5 -35 -12 -35 -6 0 -15 -4 -20 -9 -4 -5 -3 -6 4 -3 6 4 13 3 15 -2 3 -9 494 -303 787 -472 90 -52 165 -89 181 -89 33 0 75 31 96 71 28 54 -2 98 -106 159 -36 21 -195 113 -355 205 -159 92 -327 190 -371 216 -45 27 -84 49 -87 49 -2 0 -10 -7 -17 -15z m-76 -50 c-5 -13 -34 -30 -34 -19 0 3 5 14 11 25 11 22 31 17 23 -6z"/>
<path d="M3690 3699 c-19 -16 -40 -29 -47 -29 -7 0 -13 -8 -13 -17 0 -14 -2 -15 -9 -5 -7 11 -9 10 -14 -3 -4 -9 -27 -25 -52 -36 l-45 -20 0 -470 c0 -516 0 -513 60 -544 39 -20 58 -19 98 5 63 39 62 34 60 619 l-3 529 -35 -29z"/>
<path d="M4317 3139 c-9 -6 -15 -14 -12 -19 3 -5 -4 -15 -16 -24 l-22 -15 26 -7 c15 -3 24 -10 21 -16 -3 -5 -12 -4 -20 3 -8 6 -17 9 -21 5 -10 -10 -11 -96 -1 -102 11 -7 39 27 32 38 -3 5 0 8 5 8 6 0 10 3 9 8 -2 10 12 43 32 72 25 37 30 57 14 57 -7 0 -11 -4 -9 -8 3 -4 -2 -10 -11 -13 -12 -4 -15 -2 -10 9 6 18 6 18 -17 4z m34 -23 c7 4 4 -4 -7 -18 -12 -17 -23 -23 -30 -17 -6 5 -15 5 -20 1 -5 -4 -1 2 9 14 9 11 14 25 10 29 -5 5 0 3 9 -4 9 -7 23 -9 29 -5z m-36 -68 c4 4 0 -5 -9 -19 -9 -14 -14 -28 -11 -31 3 -3 -1 -10 -8 -16 -11 -10 -13 -4 -12 31 3 53 3 51 18 38 8 -6 17 -7 22 -3z"/>
</g>
<g id="layer103" fill="#2396bd" stroke="none">
<path d="M3400 8553 c-241 -36 -361 -68 -565 -148 -383 -149 -698 -385 -936 -701 -112 -150 -214 -324 -237 -405 -17 -64 35 -129 104 -129 40 0 84 51 144 169 132 255 362 510 610 675 202 135 517 261 740 297 160 26 469 36 606 20 133 -16 345 -65 463 -108 261 -94 556 -290 745 -494 106 -114 247 -322 299 -439 14 -30 37 -66 51 -79 50 -47 130 -25 164 46 l17 35 -50 96 c-180 347 -448 640 -765 836 -156 97 -377 199 -520 242 -68 20 -315 72 -395 84 -66 9 -420 12 -475 3z"/>
<path d="M3145 6920 c-219 -6 -570 -33 -785 -60 -148 -18 -539 -99 -632 -130 -291 -97 -373 -216 -232 -334 89 -74 402 -175 635 -205 46 -6 122 -18 169 -26 47 -9 112 -16 145 -16 50 -1 62 2 77 22 43 52 -3 86 -132 100 -285 31 -679 120 -784 177 -43 23 -51 32 -54 59 -3 30 0 33 70 66 112 54 214 81 443 120 425 73 528 84 820 92 116 3 242 10 280 16 78 12 857 6 1180 -9 510 -24 1139 -128 1314 -216 57 -30 74 -48 69 -78 -4 -31 -123 -90 -248 -123 -151 -39 -461 -92 -633 -109 -87 -9 -166 -20 -176 -25 -47 -25 -50 -69 -8 -95 56 -35 657 61 900 143 157 54 243 107 276 173 18 38 19 44 5 77 -36 85 -121 138 -319 199 -143 44 -528 115 -715 132 -63 6 -149 15 -190 20 -185 23 -1086 42 -1475 30z"/>
<path d="M4660 5848 c-68 -48 -75 -100 -22 -158 21 -23 57 -39 162 -74 147 -47 376 -152 517 -237 470 -283 836 -711 1056 -1240 51 -122 73 -192 122 -389 30 -120 39 -188 56 -395 25 -302 18 -437 -37 -719 -90 -466 -282 -863 -583 -1208 -108 -124 -279 -286 -385 -366 -64 -48 -91 -94 -74 -127 6 -11 24 -35 41 -53 55 -57 86 -45 262 104 504 424 861 1056 976 1729 26 149 37 537 20 692 -17 157 -87 485 -132 618 -173 510 -466 940 -869 1277 -248 207 -441 323 -765 461 -114 48 -281 107 -304 107 -4 0 -23 -10 -41 -22z"/>
<path d="M1656 5295 c-72 -38 -302 -262 -434 -424 -309 -378 -515 -830 -604 -1321 -24 -136 -31 -202 -35 -375 -6 -256 6 -404 51 -635 57 -284 119 -467 245 -719 152 -302 323 -535 567 -771 190 -184 350 -303 583 -435 188 -106 493 -228 686 -272 174 -40 166 -40 213 4 39 37 40 41 32 78 -16 70 -49 91 -196 124 -795 180 -1483 786 -1798 1583 -109 278 -190 781 -172 1067 17 244 70 535 132 713 162 466 430 868 764 1147 84 70 110 104 110 142 0 32 -32 74 -70 94 -36 18 -38 18 -74 0z"/>
</g>
<g id="layer104" fill="#45aeb5" stroke="none">
<path d="M3405 8553 c-329 -37 -703 -174 -985 -360 -297 -196 -563 -492 -718 -798 -45 -91 -53 -126 -34 -165 15 -32 62 -60 98 -60 40 0 84 51 144 169 132 255 362 510 610 675 202 135 517 261 740 297 160 26 469 36 606 20 133 -16 345 -65 463 -108 261 -94 556 -290 745 -494 106 -114 247 -322 299 -439 14 -30 37 -66 51 -79 50 -47 130 -25 164 46 l17 35 -50 96 c-180 347 -448 640 -765 836 -187 116 -457 235 -590 260 -14 2 -67 14 -119 25 -51 12 -96 19 -99 16 -3 -2 -11 0 -17 5 -7 6 -39 12 -71 15 -32 2 -76 7 -98 10 -24 3 -45 0 -54 -7 -12 -10 -14 -10 -8 -1 5 10 -27 12 -146 11 -84 -1 -166 -3 -183 -5z"/>
<path d="M1940 6781 c0 -7 -6 -11 -14 -8 -34 13 -307 -73 -386 -121 -127 -79 -143 -172 -44 -256 89 -74 402 -175 635 -205 46 -6 122 -18 169 -26 47 -9 112 -16 145 -16 50 -1 62 2 77 22 43 52 -3 86 -132 100 -285 31 -679 120 -784 177 -42 22 -52 32 -54 58 -3 27 2 33 45 56 91 49 228 89 447 130 122 22 233 40 247 39 16 -1 29 5 33 14 4 12 9 13 24 4 14 -9 27 -9 48 -1 25 9 26 11 7 11 -12 1 -25 6 -28 11 -5 8 -11 7 -21 -1 -11 -9 -14 -8 -14 2 0 12 -2 12 -9 0 -6 -10 -13 -11 -29 -2 -22 12 -41 -2 -21 -15 8 -5 9 -3 4 6 -6 9 -4 11 4 6 14 -9 8 -19 -13 -22 -9 -1 -13 6 -12 20 2 15 -3 22 -15 22 -10 0 -17 -5 -16 -11 1 -5 -6 -9 -15 -7 -10 2 -27 -2 -37 -8 -13 -6 -22 -7 -26 0 -3 5 -16 6 -28 2 -31 -10 -68 -8 -93 5 -11 7 -26 8 -34 3 -15 -9 -41 -2 -52 14 -5 7 -8 6 -8 -3z"/>
<path d="M5716 6453 c-6 -15 -8 -15 -16 -3 -8 13 -10 13 -10 1 0 -8 -3 -12 -6 -9 -3 4 -29 -4 -57 -17 -116 -53 -502 -132 -780 -159 -87 -9 -166 -20 -176 -25 -47 -25 -50 -69 -8 -95 56 -35 657 61 900 143 150 51 267 122 254 154 -7 18 -54 17 -50 -1 1 -5 -7 -7 -19 -4 -16 4 -19 2 -13 -8 5 -9 4 -11 -4 -6 -6 4 -9 16 -6 27 8 24 0 25 -9 2z"/>
<path d="M849 4258 c-7 -25 -4 -34 13 -34 17 0 17 2 4 12 -9 6 -13 14 -9 17 3 4 3 7 0 7 -4 0 -7 -1 -8 -2z"/>
<path d="M954 4208 c-15 -23 -14 -41 1 -28 10 8 14 7 18 -2 3 -7 5 -3 3 9 -3 29 -12 38 -22 21z"/>
<path d="M894 4068 c-4 -6 0 -16 9 -23 23 -17 21 -25 -5 -20 -13 3 -31 -4 -45 -16 l-22 -22 -7 28 c-6 23 -9 26 -18 13 -6 -8 -17 -13 -24 -10 -10 3 -9 7 3 16 13 9 12 11 -9 11 -15 0 -23 -5 -21 -15 1 -8 -5 -24 -14 -34 -15 -18 -15 -18 4 -9 11 6 33 13 50 17 29 7 29 7 11 -13 -20 -22 -42 -29 -30 -9 4 7 3 8 -4 4 -18 -11 -14 -22 10 -33 19 -8 20 -10 4 -16 -9 -4 -15 -3 -12 2 6 9 -14 21 -42 27 -9 1 -11 -3 -7 -13 3 -9 1 -20 -6 -23 -6 -4 -12 -19 -12 -33 -1 -14 -5 -23 -8 -21 -4 2 -10 -13 -15 -34 -4 -20 -8 -39 -9 -42 -1 -3 -9 -31 -19 -63 -18 -58 -16 -94 5 -82 6 4 8 13 5 21 -3 7 -2 15 2 18 4 2 9 -6 10 -20 1 -13 -3 -24 -8 -24 -6 0 -13 0 -17 0 -10 0 -20 -35 -44 -155 -25 -128 -36 -477 -20 -655 12 -146 67 -432 110 -575 82 -274 254 -617 429 -854 132 -181 344 -401 517 -540 292 -234 725 -448 1070 -528 174 -40 166 -40 213 4 39 37 40 41 32 78 -16 70 -49 91 -196 124 -795 180 -1483 786 -1798 1583 -109 278 -190 781 -172 1067 9 126 40 357 62 453 17 74 14 101 -11 92 -8 -4 -15 -1 -15 6 0 9 -8 7 -22 -6 -22 -18 -22 -18 1 8 13 16 20 32 16 39 -5 8 -4 10 3 5 7 -4 12 -3 12 3 0 5 10 8 23 6 19 -4 25 2 40 41 9 26 15 50 12 54 -3 5 -1 10 4 12 6 1 12 15 15 30 2 15 8 33 13 40 4 7 6 21 4 32 -2 12 1 16 10 11 7 -5 10 -4 5 3 -3 6 -2 13 4 17 15 9 2 25 -16 18 -8 -3 -13 -12 -10 -20 4 -9 1 -13 -6 -10 -7 2 -12 9 -11 15 2 7 -4 9 -14 5 -12 -5 -15 -2 -10 10 7 19 2 23 -9 5z m-4 -58 c0 -5 -6 -10 -14 -10 -21 0 -27 -28 -8 -39 9 -6 12 -11 5 -11 -6 0 -15 5 -18 10 -3 6 -13 10 -21 10 -10 0 -13 -8 -9 -29 3 -17 0 -33 -5 -36 -6 -4 -8 -10 -5 -15 3 -5 1 -11 -5 -15 -6 -4 -7 -12 -3 -18 16 -25 12 -39 -9 -34 -33 9 -44 -2 -43 -39 1 -19 -1 -32 -4 -28 -3 3 -6 23 -7 44 0 30 3 37 15 32 12 -4 12 0 -3 16 -11 12 -14 22 -8 22 7 0 12 -5 12 -12 0 -6 9 -3 20 7 11 10 19 25 19 34 -1 12 -2 12 -6 -2 -5 -20 -30 -17 -25 3 2 7 -5 9 -18 5 -11 -3 -20 -2 -20 4 0 18 20 23 37 9 13 -10 17 -11 21 0 3 10 7 10 18 1 15 -12 15 -5 2 51 -2 10 3 14 14 12 10 -1 26 6 38 18 22 22 30 25 30 10z m39 -7 c-12 -15 -12 -16 6 -9 19 7 19 6 -1 -13 -21 -19 -64 -19 -64 0 0 12 17 11 25 -1 4 -6 11 -8 16 -4 6 4 6 11 -1 19 -8 10 -7 14 7 18 10 3 20 5 22 6 2 0 -3 -7 -10 -16z m-42 -91 l21 -28 -24 0 c-13 0 -24 5 -24 11 0 5 -5 3 -10 -5 -8 -13 -11 -13 -22 -1 -10 10 -10 12 0 7 6 -4 12 -2 12 4 0 7 8 9 20 5 15 -5 18 -3 14 9 -3 9 -12 16 -20 16 -8 0 -14 4 -14 10 0 16 26 1 47 -28z m-11 -48 c-2 -6 1 -18 7 -25 10 -10 9 -11 -3 -2 -8 6 -18 12 -22 13 -56 13 -60 25 -9 25 20 1 30 -3 27 -11z m-141 -125 c-4 -5 -10 -7 -15 -4 -4 3 -13 -2 -20 -11 -12 -13 -10 -14 14 -10 14 3 24 1 21 -4 -7 -11 -54 -5 -68 9 -9 9 -8 11 7 5 14 -5 17 -4 12 5 -5 7 -2 10 6 9 7 -2 12 5 12 14 -1 14 2 16 17 7 11 -5 17 -14 14 -20z"/>
<path d="M846 3775 c6 -14 4 -16 -7 -10 -8 4 -11 4 -6 0 15 -18 43 -12 44 9 1 12 -1 15 -4 8 -4 -10 -8 -10 -19 -1 -12 10 -13 9 -8 -6z"/>
<path d="M6701 3565 c9 -9 23 -13 33 -9 14 5 15 9 5 15 -8 5 -17 3 -21 -4 -6 -9 -8 -9 -8 1 0 6 -5 12 -12 12 -8 0 -7 -5 3 -15z"/>
<path d="M6575 3540 c2 -3 0 -12 -6 -20 -6 -10 -9 -11 -9 -2 0 6 -5 12 -10 12 -6 0 -9 -20 -8 -45 2 -25 7 -43 13 -41 6 2 9 9 7 15 -1 7 2 10 8 6 8 -5 8 -11 1 -19 -6 -7 -7 -17 -3 -21 4 -5 2 -5 -5 -2 -12 8 -12 -65 2 -243 10 -130 -9 -329 -51 -545 -90 -464 -283 -863 -583 -1207 -108 -124 -279 -286 -385 -366 -64 -48 -91 -94 -74 -127 6 -11 24 -35 41 -52 55 -58 86 -46 262 103 400 337 691 774 870 1309 89 268 124 463 132 736 5 175 4 197 -11 202 -9 4 -16 2 -16 -4 0 -6 -7 -9 -15 -5 -15 6 -20 -5 -8 -18 4 -3 7 -16 8 -28 2 -18 1 -19 -10 -5 -7 9 -16 13 -20 9 -5 -4 -5 -1 -1 6 4 6 3 12 -2 12 -5 0 -15 11 -22 25 -18 34 -26 31 -25 -7 0 -18 5 -32 11 -31 5 1 20 -7 33 -16 18 -14 21 -20 11 -26 -8 -5 -11 -4 -7 2 4 6 0 14 -8 17 -11 4 -15 0 -13 -12 2 -10 -3 -17 -14 -17 -9 0 -25 -8 -35 -18 -11 -9 -23 -17 -28 -17 -4 0 5 11 20 24 16 14 32 23 37 20 4 -3 8 2 8 11 0 9 -4 13 -10 10 -5 -3 -10 1 -10 11 0 13 -3 14 -13 5 -11 -8 -13 -6 -12 9 1 11 7 26 13 32 9 9 9 15 -1 27 -8 9 -8 12 -1 8 7 -4 16 -1 22 6 11 15 12 47 0 47 -4 0 -8 6 -8 13 1 7 8 3 18 -9 10 -11 24 -19 32 -17 10 3 9 0 -2 -7 -20 -12 -24 -45 -6 -56 6 -4 16 0 23 9 16 22 26 22 18 0 -5 -14 -3 -15 7 -6 7 6 19 9 26 6 23 -9 19 123 -3 136 -10 6 -13 11 -6 11 14 0 11 37 -5 65 -10 17 -13 18 -22 5 -7 -11 -10 -12 -10 -2 0 8 9 16 20 19 22 6 26 18 8 29 -7 4 -8 3 -4 -4 12 -20 -6 -14 -32 11 -14 12 -22 17 -18 10 5 -9 -9 -12 -54 -10 -61 2 -68 5 -50 23 7 7 6 11 -4 11 -8 0 -13 -3 -11 -7z m32 -44 c-9 -22 5 -27 20 -8 8 9 12 12 9 5 -4 -6 -2 -14 4 -18 5 -3 10 1 10 10 0 12 9 15 35 13 19 -1 35 -6 35 -11 0 -5 -14 -6 -31 -2 -22 5 -29 4 -25 -4 4 -6 17 -11 29 -11 20 0 20 0 2 -14 -17 -12 -17 -16 -6 -30 11 -14 16 -14 24 -4 6 10 7 9 4 -4 -3 -9 -2 -18 4 -20 5 -2 0 -9 -11 -15 -17 -11 -21 -10 -30 10 -10 20 -10 21 3 4 9 -10 18 -14 21 -9 3 5 -3 17 -14 27 -11 10 -20 25 -20 33 0 8 -6 12 -15 8 -8 -3 -15 -1 -15 4 0 5 -9 8 -21 7 -16 -1 -17 -3 -7 -12 8 -5 14 -21 15 -34 2 -21 1 -22 -11 -6 -12 17 -14 16 -29 -6 -10 -13 -17 -18 -17 -12 0 6 6 16 14 22 14 12 13 52 -1 74 -3 6 -1 7 5 3 7 -4 12 -2 12 3 0 6 3 11 6 11 3 0 4 -6 1 -14z"/>
</g>
<g id="layer105" fill="#a5d596" stroke="none">
<path d="M3446 7635 c-97 -25 -174 -72 -266 -165 -65 -64 -96 -105 -129 -168 -38 -75 -101 -239 -101 -266 0 -7 35 -10 104 -8 l104 3 17 47 c62 163 151 279 258 332 53 27 70 30 148 30 98 0 173 -22 246 -71 78 -54 156 -163 189 -264 9 -27 21 -56 27 -62 11 -15 217 -19 217 -5 0 5 -11 41 -25 82 -78 230 -254 424 -454 501 -73 28 -248 36 -335 14z"/>
</g>
<g id="layer106" fill="#cdebf3" stroke="none">
<path d="M3295 8230 c-408 -71 -691 -216 -971 -494 -171 -171 -194 -205 -97 -143 285 183 573 266 924 267 236 0 408 -40 634 -150 138 -67 245 -137 493 -324 280 -210 405 -287 606 -371 154 -64 552 -163 573 -142 3 3 -23 68 -57 144 -174 389 -454 761 -708 940 -37 26 -82 60 -101 76 -92 78 -347 166 -546 188 -55 5 -118 15 -140 20 -22 6 -130 12 -240 15 -187 3 -211 2 -370 -26z"/>
</g>


</svg>