<?xml version="1.0" encoding="UTF-8" standalone="no"?>
<svg
   xmlns:dc="http://purl.org/dc/elements/1.1/"
   xmlns:cc="http://creativecommons.org/ns#"
   xmlns:rdf="http://www.w3.org/1999/02/22-rdf-syntax-ns#"
   xmlns:svg="http://www.w3.org/2000/svg"
   xmlns="http://www.w3.org/2000/svg"
   xmlns:sodipodi="http://sodipodi.sourceforge.net/DTD/sodipodi-0.dtd"
   xmlns:inkscape="http://www.inkscape.org/namespaces/inkscape"
   version="1.1"
   id="Layer_1"
   x="0px"
   y="0px"
   viewBox="0 0 496.156 496.156"
   style="enable-background:new 0 0 496.156 496.156;"
   xml:space="preserve"
   sodipodi:docname="refresh.svg"
   inkscape:version="1.0.1 (3bc2e813f5, 2020-09-07)"><metadata
   id="metadata45"><rdf:RDF><cc:Work
       rdf:about=""><dc:format>image/svg+xml</dc:format><dc:type
         rdf:resource="http://purl.org/dc/dcmitype/StillImage" /></cc:Work></rdf:RDF></metadata><defs
   id="defs43" /><sodipodi:namedview
   pagecolor="#ffffff"
   bordercolor="#666666"
   borderopacity="1"
   objecttolerance="10"
   gridtolerance="10"
   guidetolerance="10"
   inkscape:pageopacity="0"
   inkscape:pageshadow="2"
   inkscape:window-width="1856"
   inkscape:window-height="1010"
   id="namedview41"
   showgrid="false"
   inkscape:zoom="1.609695"
   inkscape:cx="248.078"
   inkscape:cy="248.078"
   inkscape:window-x="64"
   inkscape:window-y="32"
   inkscape:window-maximized="1"
   inkscape:current-layer="Layer_1" />
<path
   style="fill:#00aa88"
   d="M0,248.08C0,111.06,111.069,0.002,248.074,0.002c137.013,0,248.082,111.059,248.082,248.078  c0,137.005-111.069,248.074-248.082,248.074C111.069,496.154,0,385.085,0,248.08z"
   id="path2" />
<g
   id="g8">
	<path
   style="fill:#FFFFFF;"
   d="M428.243,172.149c-10.348,0.023-20.694,0.054-31.042,0.077   c-23.272-52.177-68.95-89.871-126.649-98.91c-64.287-10.071-125.816,19.788-162.504,72.312   c-16.296,23.326,22.003,45.165,38.16,22.034c50.317-72.037,157.757-65.527,201.907,4.686c-9.559,0.022-19.118,0.046-28.678,0.068   c-2.674,0.008-4.574,1.197-5.749,2.877c-1.92,2.058-2.65,5.072-0.639,8.186c18.204,28.25,36.408,56.499,54.616,84.745   c3.061,4.747,9.663,4.708,12.696-0.046c18.062-28.338,36.126-56.675,54.188-85.013C437.538,178.48,433.602,172.135,428.243,172.149   z"
   id="path4" />
	<path
   style="fill:#FFFFFF;"
   d="M350.353,327.224c-49.927,71.49-156.108,65.63-200.886-3.049c9.161-0.022,18.322-0.046,27.484-0.068   c2.666-0.008,4.563-1.19,5.741-2.865c1.924-2.059,2.658-5.072,0.646-8.197c-18.2-28.246-36.405-56.499-54.609-84.741   c-3.056-4.751-9.662-4.712-12.695,0.046c-18.063,28.334-36.13,56.671-54.196,85.009c-2.987,4.689,0.948,11.032,6.308,11.017   c10.669-0.027,21.337-0.054,32.006-0.08c23.498,51.319,68.777,88.332,125.865,97.275c64.287,10.072,125.816-19.784,162.496-72.312   C404.806,325.928,366.508,304.09,350.353,327.224z"
   id="path6" />
</g>
<g
   id="g10">
</g>
<g
   id="g12">
</g>
<g
   id="g14">
</g>
<g
   id="g16">
</g>
<g
   id="g18">
</g>
<g
   id="g20">
</g>
<g
   id="g22">
</g>
<g
   id="g24">
</g>
<g
   id="g26">
</g>
<g
   id="g28">
</g>
<g
   id="g30">
</g>
<g
   id="g32">
</g>
<g
   id="g34">
</g>
<g
   id="g36">
</g>
<g
   id="g38">
</g>
</svg>
