<?xml version="1.0" encoding="UTF-8" standalone="no"?>
<svg
   xmlns:dc="http://purl.org/dc/elements/1.1/"
   xmlns:cc="http://creativecommons.org/ns#"
   xmlns:rdf="http://www.w3.org/1999/02/22-rdf-syntax-ns#"
   xmlns:svg="http://www.w3.org/2000/svg"
   xmlns="http://www.w3.org/2000/svg"
   xmlns:sodipodi="http://sodipodi.sourceforge.net/DTD/sodipodi-0.dtd"
   xmlns:inkscape="http://www.inkscape.org/namespaces/inkscape"
   version="1.1"
   id="Capa_1"
   x="0px"
   y="0px"
   viewBox="0 0 18.453 18.453"
   style="enable-background:new 0 0 18.453 18.453;"
   xml:space="preserve"
   sodipodi:docname="see-case.svg"
   inkscape:version="1.0.1 (3bc2e813f5, 2020-09-07)"><metadata
   id="metadata49"><rdf:RDF><cc:Work
       rdf:about=""><dc:format>image/svg+xml</dc:format><dc:type
         rdf:resource="http://purl.org/dc/dcmitype/StillImage" /></cc:Work></rdf:RDF></metadata><defs
   id="defs47" /><sodipodi:namedview
   pagecolor="#ffffff"
   bordercolor="#666666"
   borderopacity="1"
   objecttolerance="10"
   gridtolerance="10"
   guidetolerance="10"
   inkscape:pageopacity="0"
   inkscape:pageshadow="2"
   inkscape:window-width="1856"
   inkscape:window-height="1010"
   id="namedview45"
   showgrid="false"
   inkscape:zoom="43.280762"
   inkscape:cx="9.2264996"
   inkscape:cy="9.2264996"
   inkscape:window-x="64"
   inkscape:window-y="32"
   inkscape:window-maximized="1"
   inkscape:current-layer="Capa_1" />
<g
   id="g12"
   style="fill:#00aa88">
	<g
   id="g10"
   style="fill:#00aa88">
		<rect
   x="2.711"
   y="4.058"
   style="fill:#00aa88"
   width="8.23"
   height="1.334"
   id="rect2" />
		<path
   style="fill:#00aa88"
   d="M14.972,14.088c0.638-1.127,0.453-2.563-0.475-3.49c-0.549-0.549-1.279-0.852-2.058-0.852    c-0.779,0-1.51,0.303-2.059,0.852s-0.852,1.279-0.852,2.059c0,0.777,0.303,1.508,0.852,2.059c0.549,0.547,1.279,0.85,2.057,0.85    c0.507,0,0.998-0.129,1.434-0.375l3.262,3.262l1.101-1.102L14.972,14.088z M13.664,13.881c-0.652,0.652-1.796,0.652-2.448,0    c-0.675-0.676-0.675-1.773,0-2.449c0.326-0.326,0.762-0.506,1.225-0.506s0.897,0.18,1.224,0.506s0.507,0.762,0.507,1.225    S13.991,13.554,13.664,13.881z"
   id="path4" />
		<path
   style="fill:#00aa88"
   d="M13.332,16.3H1.857c-0.182,0-0.329-0.148-0.329-0.328V1.638c0-0.182,0.147-0.329,0.329-0.329    h11.475c0.182,0,0.328,0.147,0.328,0.329V8.95c0.475,0.104,0.918,0.307,1.31,0.597V1.638C14.97,0.735,14.236,0,13.332,0H1.857    C0.954,0,0.219,0.735,0.219,1.638v14.334c0,0.902,0.735,1.637,1.638,1.637h11.475c0.685,0,1.009-0.162,1.253-0.76l-0.594-0.594    C13.772,16.347,13.426,16.3,13.332,16.3z"
   id="path6" />
		<rect
   x="2.711"
   y="7.818"
   style="fill:#00aa88"
   width="8.23"
   height="1.334"
   id="rect8" />
	</g>
</g>
<g
   id="g14">
</g>
<g
   id="g16">
</g>
<g
   id="g18">
</g>
<g
   id="g20">
</g>
<g
   id="g22">
</g>
<g
   id="g24">
</g>
<g
   id="g26">
</g>
<g
   id="g28">
</g>
<g
   id="g30">
</g>
<g
   id="g32">
</g>
<g
   id="g34">
</g>
<g
   id="g36">
</g>
<g
   id="g38">
</g>
<g
   id="g40">
</g>
<g
   id="g42">
</g>
</svg>
