<?xml version="1.0" encoding="UTF-8" standalone="no"?>
<svg
   xmlns:dc="http://purl.org/dc/elements/1.1/"
   xmlns:cc="http://creativecommons.org/ns#"
   xmlns:rdf="http://www.w3.org/1999/02/22-rdf-syntax-ns#"
   xmlns:svg="http://www.w3.org/2000/svg"
   xmlns="http://www.w3.org/2000/svg"
   xmlns:sodipodi="http://sodipodi.sourceforge.net/DTD/sodipodi-0.dtd"
   xmlns:inkscape="http://www.inkscape.org/namespaces/inkscape"
   version="1.1"
   id="Layer_1"
   x="0px"
   y="0px"
   viewBox="0 0 512 512"
   style="enable-background:new 0 0 512 512;"
   xml:space="preserve"
   sodipodi:docname="settings.svg"
   inkscape:version="1.0.1 (3bc2e813f5, 2020-09-07)"><metadata
   id="metadata9"><rdf:RDF><cc:Work
       rdf:about=""><dc:format>image/svg+xml</dc:format><dc:type
         rdf:resource="http://purl.org/dc/dcmitype/StillImage" /></cc:Work></rdf:RDF></metadata><defs
   id="defs7" /><sodipodi:namedview
   pagecolor="#ffffff"
   bordercolor="#666666"
   borderopacity="1"
   objecttolerance="10"
   gridtolerance="10"
   guidetolerance="10"
   inkscape:pageopacity="0"
   inkscape:pageshadow="2"
   inkscape:window-width="1856"
   inkscape:window-height="1010"
   id="namedview5"
   showgrid="false"
   inkscape:zoom="1.5598825"
   inkscape:cx="256"
   inkscape:cy="256"
   inkscape:window-x="64"
   inkscape:window-y="32"
   inkscape:window-maximized="1"
   inkscape:current-layer="Layer_1" />
<g
   id="XMLID_1_"
   style="fill:#00aa88">
	<path
   id="XMLID_5_"
   d="M468.9,255.5c0-27.8,17.6-51.8,41.7-61.1c-6.5-26.8-17.6-52.8-31.5-75.9c-8.3,3.7-17.6,5.6-26.8,5.6   c-16.7,0-33.3-6.5-46.3-19.4c-19.4-19.4-24.1-49.1-13.9-73.1C369,17.6,344,6.5,316.2,0c-8.3,25-32.4,42.6-60.2,42.6   S204.2,25,194.9,0.9C168,7.4,142.1,18.5,119,32.4c11.1,24.1,6.5,52.8-13.9,73.1c-13,13-29.6,19.4-46.3,19.4   c-9.3,0-18.5-1.9-26.8-5.6c-13.9,23.1-25,49.1-31.5,75.9c24.1,9.3,41.7,33.3,41.7,61.1s-17.6,51.8-41.7,61.1   c6.5,26.8,17.6,52.8,31.5,75.9c8.3-3.7,17.6-5.6,26.8-5.6c16.7,0,33.3,6.5,46.3,19.4c19.4,19.4,24.1,49.1,13.9,73.1   c23.1,13.9,49.1,25,75.9,31.5c9.3-24.1,33.3-41.7,61.1-41.7s51.8,17.6,61.1,41.7c26.8-6.5,52.8-17.6,75.9-31.5   c-10.2-24.1-6.5-52.8,13.9-73.1c13-13,29.6-19.4,46.3-19.4c9.3,0,18.5,1.9,26.8,5.6c13.9-23.1,25-49.1,31.5-75.9   C485.6,307.4,468.9,283.3,468.9,255.5L468.9,255.5z M256.9,361.1c-58.3,0-106.5-47.2-106.5-106.5s47.2-106.5,106.5-106.5   s106.5,49.1,106.5,107.4S316.2,361.1,256.9,361.1z"
   style="fill:#00aa88" />
</g>
</svg>
