<?xml version="1.0" encoding="UTF-8" standalone="no"?>
<svg
   xmlns:dc="http://purl.org/dc/elements/1.1/"
   xmlns:cc="http://creativecommons.org/ns#"
   xmlns:rdf="http://www.w3.org/1999/02/22-rdf-syntax-ns#"
   xmlns:svg="http://www.w3.org/2000/svg"
   xmlns="http://www.w3.org/2000/svg"
   xmlns:sodipodi="http://sodipodi.sourceforge.net/DTD/sodipodi-0.dtd"
   xmlns:inkscape="http://www.inkscape.org/namespaces/inkscape"
   version="1.1"
   id="Layer_1"
   x="0px"
   y="0px"
   viewBox="0 0 512 390"
   xml:space="preserve"
   sodipodi:docname="user-add.svg"
   inkscape:version="1.0.1 (3bc2e813f5, 2020-09-07)"
   width="512"
   height="390"><metadata
   id="metadata11"><rdf:RDF><cc:Work
       rdf:about=""><dc:format>image/svg+xml</dc:format><dc:type
         rdf:resource="http://purl.org/dc/dcmitype/StillImage" /><dc:title></dc:title></cc:Work></rdf:RDF></metadata><defs
   id="defs9" /><sodipodi:namedview
   pagecolor="#ffffff"
   bordercolor="#666666"
   borderopacity="1"
   objecttolerance="10"
   gridtolerance="10"
   guidetolerance="10"
   inkscape:pageopacity="0"
   inkscape:pageshadow="2"
   inkscape:window-width="1856"
   inkscape:window-height="1010"
   id="namedview7"
   showgrid="false"
   inkscape:zoom="1.2789085"
   inkscape:cx="152.39042"
   inkscape:cy="295.01935"
   inkscape:window-x="64"
   inkscape:window-y="32"
   inkscape:window-maximized="1"
   inkscape:current-layer="Layer_1"
   inkscape:document-rotation="0" />
<style
   type="text/css"
   id="style2">
	.st0{fill:#333333;}
</style>
<g
   id="XMLID_2_"
   style="fill:#00aa88"
   transform="translate(0,-60)">
	<path
   id="XMLID_7_"
   class="st0"
   d="m 175.6,255.1 c -26,0 -49.2,-9.3 -67.8,-27.9 -18.6,-18.6 -27.9,-40.9 -27.9,-67.8 0,-26.9 9.3,-49.2 27.9,-67.8 18.6,-18.6 40.9,-27.9 67.8,-27.9 26.9,0 49.2,9.3 67.8,27.9 18.6,18.6 27.9,40.9 27.9,67.8 0,26.9 -9.3,49.2 -27.9,67.8 -18.6,18.6 -40.8,27.9 -67.8,27.9 z m 239.8,31.6 h 88.3 c 1.9,0 3.7,0.9 5.6,2.8 1.9,1.9 2.8,3.7 2.8,5.6 v 48.3 c 0,1.9 -0.9,3.7 -2.8,5.6 -1.9,1.9 -3.7,2.8 -5.6,2.8 H 415.4 V 440 c 0,1.9 -0.9,3.7 -2.8,5.6 -1.9,1.9 -3.7,2.8 -5.6,2.8 h -48.3 c -1.9,0 -3.7,-0.9 -5.6,-2.8 -1.9,-1.9 -2.8,-3.7 -2.8,-5.6 V 351.7 H 262 c -1.9,0 -3.7,-0.9 -5.6,-2.8 -1.9,-1.9 -0.9,-3.7 -0.9,-5.6 V 295 c 0,-1.9 0.9,-3.7 2.8,-5.6 1.9,-1.9 3.7,-2.8 5.6,-2.8 h 88.3 v -87.3 c 0,-1.9 0.9,-3.7 2.8,-5.6 1.9,-1.9 3.7,-2.8 5.6,-2.8 h 48.3 c 1.9,0 3.7,0.9 5.6,2.8 1.9,1.9 2.8,3.7 2.8,5.6 v 87.3 h -1.9 z m -184,56.6 c 0,8.4 2.8,15.8 9.3,22.3 6.5,6.5 13.9,9.3 22.3,9.3 h 64.1 v 59.5 c -11.2,8.4 -25.1,12.1 -42.7,12.1 H 66.9 C 46.5,446.5 30.7,440.9 18.6,428.8 6.5,416.8 0,401.9 0,381.4 c 0,-8.4 0,-17.7 0.9,-26 0.9,-8.3 1.9,-16.7 3.7,-26 1.9,-9.3 3.7,-18.6 6.5,-26.9 2.8,-8.4 6.5,-16.7 11.2,-24.2 4.6,-7.4 9.3,-14.9 15.8,-20.4 6.5,-5.6 13,-10.2 21.4,-13 8.4,-2.8 17.7,-4.6 27.9,-4.6 2.8,0 6.5,1.9 9.3,4.6 13,10.2 26,17.7 38.1,23.2 12.1,5.6 26,7.4 40.9,7.4 14.9,0 28.8,-2.8 40.9,-7.4 12.1,-4.6 25.1,-13 38.1,-23.2 3.7,-2.8 6.5,-4.6 9.3,-4.6 22.3,0 40,8.4 53.9,24.2 H 262 c -8.4,0 -15.8,2.8 -22.3,9.3 -6.5,6.5 -9.3,13.9 -9.3,22.3 v 47.4 h 1 z"
   style="fill:#00aa88" />
</g>
</svg>
